<?xml version="1.0" encoding="utf-8"?>
<!-- Generator: Adobe Illustrator 17.0.0, SVG Export Plug-In . SVG Version: 6.00 Build 0)  -->
<!DOCTYPE svg PUBLIC "-//W3C//DTD SVG 1.1//EN" "http://www.w3.org/Graphics/SVG/1.1/DTD/svg11.dtd">
<svg version="1.1" id="Layer_1" xmlns="http://www.w3.org/2000/svg" xmlns:xlink="http://www.w3.org/1999/xlink" x="0px" y="0px"
	 width="149.089px" height="147.564px" viewBox="0 0 149.089 147.564" enable-background="new 0 0 149.089 147.564"
	 xml:space="preserve">
<g>
	<g>
		<path fill="#E3DEFA" d="M132.815,57.022c-0.389,2.541-0.653,5.099-1.22,7.616c-1.596,7.09-4.66,13.517-8.676,19.524
			c-5.889,8.81-13.285,16.234-21.325,23.051c-10.379,8.801-21.601,16.419-33.203,23.495c-1.193,0.727-1.214,0.717-1.785-0.564
			C61.109,117.815,53.5,106.956,44,97.378c-5.26-5.304-10.853-10.27-15.947-15.737c-4.647-4.989-8.479-10.487-10.372-17.157
			c-0.653-2.302-0.989-4.661-1.407-7.006c0-2.883,0-5.767,0-8.65c0.132-0.821,0.256-1.642,0.397-2.461
			c1.716-9.98,6.949-17.231,16.644-20.697c7.617-2.723,15.41-2.743,23.112-0.237c6.28,2.043,11.57,5.602,15.533,10.976
			c0.737,0.999,0.745,1.025,1.306-0.051c1.831-3.507,3.925-6.839,6.493-9.857c6.624-7.787,14.928-11.408,25.149-9.727
			c12.92,2.125,21.39,9.694,25.935,21.841c1.041,2.783,1.512,5.701,1.971,8.62C132.815,50.497,132.815,53.76,132.815,57.022z
			 M49.561,31.156c-1.027,0.11-2.624,0.193-4.186,0.466C38.269,32.864,32.83,36.455,29.77,43.14
			c-2.573,5.624-2.962,11.558-1.932,17.583c0.963,5.633,3.511,10.623,6.627,15.343c4.171,6.317,9.19,11.96,14.128,17.664
			c7.698,8.89,15.366,17.802,21.281,28.043c0.423,0.732,0.807,0.713,1.432,0.272c1.672-1.181,3.389-2.298,5.067-3.471
			c11.683-8.164,22.443-17.341,31.163-28.714c6.035-7.872,10.791-16.411,13.022-26.17c1.224-5.354,1.826-10.753,0.345-16.19
			c-2.551-9.365-11.16-18.706-24.329-16.274c-10.567,1.951-18.886,7.537-24.893,16.493c-0.163,0.243-0.245,0.643-0.585,0.633
			c-0.384-0.012-0.352-0.449-0.435-0.706c-1.416-4.424-4.046-8.037-7.477-11.088C59.468,33.251,55.168,31.284,49.561,31.156z"/>
	</g>
	<path fill="#FF95BD" d="M98.042,48.682c0.002-0.616-0.255-0.837-0.853-0.835c-4.152,0.01-8.305,0.01-12.457-0.008
		c-0.665-0.003-0.892,0.276-0.868,0.91c0.031,0.829,0.011,1.661,0.01,2.491c-0.003,1.485-0.003,1.487,1.527,1.488
		c1.262,0.001,2.524,0,3.757,0c0.079,0.34-0.096,0.441-0.214,0.559c-2.535,2.541-5.081,5.069-7.603,7.624
		c-0.144,0.146-0.276,0.231-0.405,0.269c-4.332-2.967-10.093-3.303-14.886-0.693c-5.412,2.948-8.438,9.299-7.145,15.272
		c1.236,5.709,4.73,9.42,10.336,11.065c0.882,0.259,1.149,0.657,1.126,1.509c-0.044,1.674-0.054,3.35,0.004,5.023
		c0.033,0.932-0.271,1.283-1.23,1.262c-2.283-0.052-4.567,0.006-6.851-0.026c-0.884-0.013-1.25,0.351-1.227,1.216
		c0.026,0.951,0.034,1.904,0,2.854c-0.033,0.921,0.347,1.298,1.284,1.281c2.245-0.04,4.493,0.027,6.737-0.039
		c1.022-0.03,1.312,0.337,1.285,1.322c-0.06,2.206,0.02,4.415-0.028,6.622c-0.021,0.955,0.339,1.301,1.267,1.248
		c0.911-0.052,1.828-0.054,2.739-0.008c0.891,0.045,1.21-0.31,1.193-1.199c-0.042-2.245,0.026-4.492-0.028-6.737
		c-0.023-0.962,0.341-1.257,1.262-1.241c2.283,0.042,4.567-0.008,6.851,0.017c0.817,0.009,1.199-0.306,1.184-1.134
		c-0.016-0.989-0.01-1.979,0.015-2.969c0.022-0.849-0.858-1.264-1.757-1.233c-1.179,0.041-3.446,0.01-4.084,0.01
		c0-0.004,0-0.009,0-0.013c-1.277,0-1.816-0.025-2.995,0.01c-0.73,0.021-0.757-0.25-0.743-0.997
		c0.032-1.674,0.203-3.352,0.123-5.023c-0.05-1.045,0.333-1.513,1.395-1.824c9.731-2.857,13.319-13.89,7.949-21.737
		c0.03-0.22,0.179-0.425,0.423-0.665c2.416-2.366,4.799-4.773,7.196-7.158c0.198-0.197,0.348-0.49,0.696-0.506
		c0.202,0.27,0.114,0.577,0.117,0.86c0.014,1.186,0.022,2.373,0.003,3.559c-0.01,0.624,0.207,0.929,0.878,0.907
		c1.037-0.033,2.077-0.031,3.114-0.001c0.643,0.019,0.902-0.221,0.899-0.878C98.023,56.987,98.027,52.834,98.042,48.682z
		 M63.907,73.055c-0.08-4.944,3.941-8.959,8.982-8.968c5.016-0.01,8.884,3.859,8.904,8.906c0.02,4.974-3.914,8.949-8.886,8.978
		C67.995,82,63.988,78.031,63.907,73.055z"/>
</g>
</svg>
